<svg id="e74f7ba2-190b-4052-95cf-71ad7411850d" data-name="Layer 1" xmlns="http://www.w3.org/2000/svg" viewBox="0 0 29.39 35.47"><title>marker</title><path d="M14.69,35.47L9,29.82,4.27,25A14.65,14.65,0,0,1,3.55,5.13,14.29,14.29,0,0,1,13.37.06a14.64,14.64,0,0,1,15.79,12,14.39,14.39,0,0,1-4.14,13c-3.27,3.33-6.59,6.62-9.88,9.93l-0.46.43" style="fill:#ffca06"/><path d="M11.93,20.55l-3.19-4c-0.27.57-.49,1.07-0.74,1.56a0.56,0.56,0,0,0,0,.58C8.66,20,9.27,21.25,9.9,22.5l2.16,4.31,0.18-.29,9.95-18.3c0.58-1.06.57-1.06-.1-2.07L22,6Z" style="fill:#fff;fill-rule:evenodd"/></svg>