<svg id="23bbc61e-9d56-44f1-ab94-09215e805d94" data-name="Layer 1" xmlns="http://www.w3.org/2000/svg" viewBox="0 0 29.39 35.47"><title>view</title><path d="M16.5,6.83a1.81,1.81,0,1,0-3.62,0,1.81,1.81,0,1,0,3.62,0M12,11.89v0.7Q12,19.28,12,26a3.1,3.1,0,0,0,0,.58,1,1,0,0,0,2,0,3.41,3.41,0,0,0,.06-0.73c0-2.31,0-4.62,0-6.92a1,1,0,0,1,0-.52A0.9,0.9,0,0,1,14.69,18a0.89,0.89,0,0,1,.55.43,1,1,0,0,1,0,.52q0,3.46,0,6.92a3.77,3.77,0,0,0,0,.68,1,1,0,0,0,1,.84,1,1,0,0,0,1-.9,3.83,3.83,0,0,0,0-.53v-14L18,12.1l3.62,1.13a0.83,0.83,0,0,0,1.15-1,1.28,1.28,0,0,0-.73-0.65c-1.66-.56-3.34-1.06-5-1.6A6.9,6.9,0,0,0,13,9.82c-2,.54-3.93,1.19-5.87,1.84a1.06,1.06,0,0,0-.56.67,0.82,0.82,0,0,0,1.15.9L12,11.89m2.69,23.58L9,29.82,4.27,25A14.65,14.65,0,0,1,3.55,5.13,14.29,14.29,0,0,1,13.37.06a14.65,14.65,0,0,1,15.79,12,14.39,14.39,0,0,1-4.14,13c-3.27,3.33-6.59,6.62-9.88,9.93l-0.46.43" style="fill:#8099a7"/></svg>